<?xml version="1.0" standalone="no"?><!DOCTYPE svg PUBLIC "-//W3C//DTD SVG 1.1//EN" "http://www.w3.org/Graphics/SVG/1.1/DTD/svg11.dtd"><svg class="icon" width="200px" height="200.00px" viewBox="0 0 1024 1024" version="1.1" xmlns="http://www.w3.org/2000/svg"><path fill="#41288d" d="M507.80672 206.42816H303.0016c-61.25056 0-102.4 41.14944-102.4 102.4v425.75872c0 20.22912 7.53664 86.24128 104.6016 86.24128h509.7984v-614.4H507.80672z m-25.6 25.6v244.8896L419.5072 419.81952l-69.61152 58.5728V232.02816h132.31104z m-179.2 0h21.28896v301.35808L418.83136 453.8368l88.97536 81.01376V232.02816h281.6v422.4h-486.4c-32.57344 0-58.99776 9.72288-76.8 26.7264v-372.3264c0-46.64832 30.14656-76.8 76.8-76.8z m2.19648 563.2c-58.68544 0-75.648-26.624-78.4896-52.10112 0.0512-39.51104 28.54912-63.09888 76.288-63.09888h486.4v115.2H305.2032z"  /></svg>